<svg width="20" height="20" viewBox="0 0 20 20" fill="none" xmlns="http://www.w3.org/2000/svg">
<path d="M17.989 19.129C18 17 16.803 15.74 14.672 14.822C12.549 13.908 11.871 13.138 11.871 11.488C11.871 10.499 12.519 10.821 12.803 9.007C12.923 8.255 13.495 8.99499 13.605 7.27799C13.605 6.59399 13.292 6.42399 13.292 6.42399C13.292 6.42399 13.451 5.411 13.513 4.631C13.577 3.814 13.115 2.07099 11.212 1.53599C9.66718 1.1017 8.40435 1.53602 7.725 2.04199C6.71 2.79799 6.436 3.995 6.485 4.632C6.55 5.41199 6.708 6.42499 6.708 6.42499C6.708 6.42499 6.394 6.59499 6.394 7.27899C6.504 8.99699 7.078 8.256 7.197 9.008C7.481 10.822 8.13 10.5 8.13 11.489C8.13 13.139 7.918 13.699 5.794 14.613C3.663 15.53 2 17 2.011 19.129C2.014 19.766 2 20 2 20H18C18 20 17.986 19.766 17.989 19.129Z" fill="#8F9EB4"/>
</svg>
