<svg viewBox="0 0 16 18" version="1.1" xmlns="http://www.w3.org/2000/svg">
    <path d="M6.64997196,0.724012488 C6.64134389,0.85030873 6.63697455,0.977769853 6.63697455,1.10625094 C6.63697455,4.16107432 9.11319664,6.63750548 12.1677868,6.63750548 C12.2139138,6.63750548 12.2598195,6.63694129 12.3056147,6.63582398 C12.416784,6.87059254 12.5302763,7.11314912 12.6467552,7.36364857 C13.116653,8.37408709 13.726591,8.60698609 14.316618,8.83228515 C14.9327505,9.0675626 15.5272022,9.29455422 15.9178988,10.3900966 C16.4767321,11.9538155 13.7384269,15.1541993 9.39255797,16.7668919 C5.04769564,18.3785889 0.928784693,17.723799 0.369930403,16.1600027 C-0.0206084378,15.0653674 0.292458103,14.5016219 0.616899976,13.9173002 C0.927805739,13.357316 1.24915589,12.7786361 0.971774591,11.6958378 C-0.373879781,6.44381201 -0.640798994,4.24021551 2.26043173,1.85766081 C2.77191019,1.43766159 2.81811459,1.09108535 2.8565648,0.802690159 C2.89583357,0.50821723 2.92700523,0.274395613 3.4371231,0.084975589 C3.94855731,-0.104545215 4.1202116,0.0543973758 4.33628938,0.254451016 C4.54766596,0.450166714 4.80155237,0.6852218 5.4575952,0.671869352 C5.8869411,0.662881063 6.28253797,0.679701608 6.64997196,0.724012488 Z M1.7165759,15.6620791 C1.85153878,16.0390894 5.04070469,16.8849289 8.92167567,15.4451433 C12.803609,14.0044728 14.7312077,11.3179424 14.5782254,10.8890047 C14.3192728,10.1641338 11.8429069,9.553251 7.4060893,11.1999055 C2.96924957,12.8466706 1.48463575,15.0122674 1.7165759,15.6620791 Z M3.32214858,14.3403305 C4.2359162,13.5655124 5.6455322,12.704628 7.67400185,11.9518242 C7.93793221,11.8528148 8.19488269,11.7638722 8.44579352,11.681899 C8.4508155,11.6948421 8.45679984,11.704909 8.46179969,11.7178521 C8.83270702,12.7556261 7.89395119,14.0564666 6.36735851,14.6213183 C5.16866557,15.0662524 3.96499489,14.9242098 3.32214858,14.3403305 Z"></path>
</svg>