<svg version="1.1"
     xmlns="http://www.w3.org/2000/svg"
	 viewBox="0 0 19 32">

	<path d="M7.441,16.721c-0.395-0.386-0.402-1.019-0.016-1.414c0.005-0.005,0.011-0.011,0.016-0.016
		l11.43-11.42c0.395-0.386,0.402-1.019,0.016-1.414c-0.005-0.005-0.011-0.011-0.016-0.016l-2.15-2.14
		c-0.386-0.395-1.019-0.402-1.414-0.016c-0.005,0.005-0.011,0.011-0.016,0.016l-11.42,11.43l-1.42,1.42l-2.15,2.15
		c-0.395,0.386-0.402,1.019-0.016,1.414c0.005,0.005,0.011,0.011,0.016,0.016l2.14,2.14l1.43,1.43l11.43,11.42
		c0.386,0.395,1.019,0.402,1.414,0.016c0.005-0.005,0.011-0.011,0.016-0.016l2.14-2.14c0.395-0.386,0.402-1.019,0.016-1.414
		c-0.005-0.005-0.011-0.011-0.016-0.016L7.441,16.721z"/>
</svg>
