<svg xmlns="http://www.w3.org/2000/svg" xmlns:xlink="http://www.w3.org/1999/xlink" preserveAspectRatio="xMidYMid" viewBox="0 0 18 14">
  <path d="M14.000,10.000 L14.000,14.000 L-0.000,14.000 L-0.000,4.000 L4.000,4.000 L4.000,-0.000 L18.000,-0.000 L18.000,10.000 L14.000,10.000 ZM4.000,6.000 L2.000,6.000 L2.000,8.000 L4.000,8.000 L4.000,6.000 ZM4.000,10.000 L2.000,10.000 L2.000,12.000 L4.000,12.000 L4.000,10.000 ZM8.000,2.000 L6.000,2.000 L6.000,4.000 L8.000,4.000 L8.000,2.000 ZM8.000,6.000 L6.000,6.000 L6.000,8.000 L8.000,8.000 L8.000,6.000 ZM8.000,10.000 L6.000,10.000 L6.000,12.000 L8.000,12.000 L8.000,10.000 ZM12.000,2.000 L10.000,2.000 L10.000,4.000 L12.000,4.000 L12.000,2.000 ZM12.000,6.000 L10.000,6.000 L10.000,8.000 L12.000,8.000 L12.000,6.000 ZM12.000,10.000 L10.000,10.000 L10.000,12.000 L12.000,12.000 L12.000,10.000 ZM16.000,2.000 L14.000,2.000 L14.000,4.000 L16.000,4.000 L16.000,2.000 ZM16.000,6.000 L14.000,6.000 L14.000,8.000 L16.000,8.000 L16.000,6.000 Z"/>
</svg>
