<svg xmlns="http://www.w3.org/2000/svg" width="26" height="16">
    <path fill="#FFF" fill-rule="evenodd" d="M20.791 13.931c-.469 1.267-1.739 2.067-3.077 2.067h-3.545a2.19 2.19 0 0 0 2.007-1.333L21.727.998h4.281l-5.217 12.933zm-6.087-9.266a4.38 4.38 0 0 0-4.013-2.668c-1.739 0-3.277 1.067-3.945 2.668L2.13 15.998H-.01L4.873 3.931c.936-2.4 3.21-3.933 5.818-3.933 2.608 0 4.883 1.533 5.819 3.933l1.672 4.067-1.07 2.666-2.408-5.999zm-3.946-2.067c1.471 0 2.809.933 3.345 2.267l2.674 6.666-1.136 2.667-3.478-8.534c-.201-.6-.803-.999-1.472-.999-.602 0-1.204.399-1.471.999L5.006 15.998h-2.14L7.414 4.865c.535-1.4 1.873-2.267 3.344-2.267zm.803 3.333l3.612 9.001a1.367 1.367 0 0 1-1.004.399 1.452 1.452 0 0 1-1.337-.933l-2.141-5.266-2.809 6.866h-2.14l4.08-10.067a.93.93 0 0 1 1.739 0z"/>
</svg>
