<svg xmlns="http://www.w3.org/2000/svg" viewBox="0 0 75.469 78.719">
    <path fill="#fff"
          d="M76.24,77.5c0,1.031-.7,1.405-1.968,1.405H2.884c-1.265,0-1.968-.375-1.968-1.405,0-5.747-1.2-9.673,7.118-15.3,8.365-5.661,15.049-7.6,17.549-9.1s2.653-3,3.862-5.7a20.816,20.816,0,0,0,.445-4.568,59.474,59.474,0,0,1-3.8-8.19,14.788,14.788,0,0,0-.7-2.142c-1.823-.9-1.965-2.848-2.209-3.529-0.3-3.784-.211-5.055.079-6.473a12.6,12.6,0,0,0-.218-4.178c-0.439-2.156-.718-2.165.1-5.916a10.9,10.9,0,0,1,1.442-3.578c2.5-5.3,6.23-7.571,10.392-8.3A0.45,0.45,0,0,1,35.258.288c0.162-.021.363-0.038,0.58-0.052l0.194-.01c0.174-.009.357-0.016,0.553-0.021l0.2,0c0.249,0,.508-0.006.778,0h0.048c0.315,0,.637.008,0.963,0.018h0A24.543,24.543,0,0,1,41.9.288a0.45,0.45,0,0,1,.282.246q0.764,0.133,1.506.34l0.065,0.018a13.813,13.813,0,0,1,1.437.492L45.24,1.406a12.554,12.554,0,0,1,2.716,1.531l0.062,0.044a12.843,12.843,0,0,1,1.173,1.006c0.051,0.049.1,0.1,0.154,0.148A14.015,14.015,0,0,1,50.4,5.311c0.055,0.068.109,0.139,0.163,0.209a16.111,16.111,0,0,1,.973,1.4c0.039,0.064.077,0.132,0.116,0.2a19.262,19.262,0,0,1,.921,1.714,10.9,10.9,0,0,1,1.442,3.578c0.821,3.751.209,3.76-.23,5.916a9.078,9.078,0,0,0,.2,4.012c0.529,2.511.473,3,0,6.64-0.244.681-.386,2.632-2.209,3.529a14.8,14.8,0,0,0-.7,2.142c-1.364,3.108-1.178,4.314-3.657,8.762a16.538,16.538,0,0,0,.445,4c1.209,2.7,1.22,4.2,3.72,5.7s9.184,3.436,17.549,9.1C77.437,67.828,76.24,71.754,76.24,77.5Z"
          transform="translate(-0.844 -0.188)"/>
</svg>